<?xml version="1.0" encoding="utf-8"?>
<!-- Generator: Adobe Illustrator 21.1.0, SVG Export Plug-In . SVG Version: 6.00 Build 0)  -->
<svg version="1.1" id="Слой_1" xmlns="http://www.w3.org/2000/svg" xmlns:xlink="http://www.w3.org/1999/xlink" x="0px" y="0px"
	 width="190px" height="150px" viewBox="0 0 190 150" style="enable-background:new 0 0 190 150;" xml:space="preserve">
<style type="text/css">
	.st0{fill:#807C7C;}
</style>
<g id="Слой_1_2_">
	<g id="Слой_1_1_">
		<g>
			<g>
				<path class="st0" d="M75.2,115.8c6.3,0,12.6,0,18.9,0c-5.2-14.3-10.3-28.6-15.5-42.9C73.8,59.6,69,46.3,64.1,33
					c-1.5-4.2-2.9-8.7-7.9-10c-0.6-0.2-1.3-0.3-1.9-0.4c-2.7-0.5-4.1-0.6-4.6-0.6s-1,0-1.3,0c0,0.1,0,0.1,0,0.2c0,4.7,0,9.4,0,14.1
					c0.4,0.7,1,1.3,1.3,2c4.1,12,8.1,24.1,12.1,36.1c0.3,0.8,0.5,1.7,0.8,2.7c-4.9,0-9.5,0-14.1,0c0,4.8,0,9.6,0,14.4
					c5.4,0,10.9-0.1,16.3,0c0.9,0,2.4,0.8,2.6,1.5C70.1,100.5,72.6,108.2,75.2,115.8z"/>
				<path class="st0" d="M20,115.8c-6.3,0-12.6,0-18.9,0c5.2-14.3,10.3-28.6,15.5-42.9c4.8-13.3,9.6-26.6,14.5-39.9
					c1.5-4.2,2.9-8.7,7.9-10c0.6-0.2,1.3-0.3,1.9-0.4c2.7-0.5,4.1-0.6,4.6-0.6s1,0,1.3,0c0,0.1,0,0.1,0,0.2c0,4.7,0,9.4,0,14.1
					c-0.4,0.7-1,1.3-1.3,2c-4.1,12-8.1,24.1-12.1,36.1c-0.3,0.8-0.5,1.7-0.8,2.7c4.9,0,9.5,0,14.1,0c0,4.8,0,9.6,0,14.4
					c-5.4,0-10.9-0.1-16.3,0c-0.9,0-2.4,0.8-2.6,1.5C25.1,100.5,22.6,108.2,20,115.8z"/>
			</g>
			<path class="st0" d="M155.1,114.7"/>
			<path class="st0" d="M161.8,118"/>
		</g>
		<path class="st0" d="M148.4,113.3c9.1-6.4,18.1-12.9,27.2-19.3c2.7,6.1,5.4,12.3,8.1,18.4c-3.5,3-7.1,6-10.6,9
			c-3.2-2.1-7.8-4.6-13.7-6.2C155.2,113.9,151.4,113.4,148.4,113.3z"/>
	</g>
	<path class="st0" d="M124,18.9c17.7-5.7,37.9-1.2,51.4,13.3c8.9,9.7,13.6,22.2,13,35.4c-0.5,13.2-6,25.4-15.7,34.3
		s-22.2,13.6-35.4,13c-13-0.5-25.2-6.2-34.2-15.7c-18.4-19.9-17.3-51.1,2.6-69.6C111.1,24.7,117.4,21.1,124,18.9z M150.8,101.1
		c5.1-1.7,9.7-4.4,13.8-8.1c7.3-6.8,11.4-15.9,11.8-25.8c0.4-9.9-3.1-19.4-10-26.6c-13.9-15-37.4-16-52.5-2s-16,37.4-2,52.5l0,0
		c6.8,7.3,15.9,11.4,25.8,11.8C142.3,103,146.7,102.5,150.8,101.1z"/>
</g>
<g id="Слой_2_1_">
	<g id="Шестеренки">
		<g>
			<path class="st0" d="M146.6,105l-18.8-1.9c1.3-3.1,2.7-6.2,4-9.2c4.3,0.4,8.6,0.9,13,1.3C145.2,98.4,145.8,101.7,146.6,105z"/>
			<path class="st0" d="M147.4,105.6l-20.6-2l4.5-10.5l13.9,1.4L147.4,105.6z M128.5,102.5l17.2,1.7l-1.6-8.5l-12-1.2L128.5,102.5z"
				/>
		</g>
		<g>
			<path class="st0" d="M131.7,26.9l18.9,1.9c-1.3,3.1-2.7,6.2-4,9.2c-4.3-0.4-8.6-0.9-13-1.3C133,33.4,132.2,30.1,131.7,26.9z"/>
			<path class="st0" d="M151.4,28.2L147,38.7L133,37.3l-2.1-11.2L151.4,28.2z M146.1,37.3l3.4-8l-17.2-1.7l1.6,8.5L146.1,37.3z"/>
		</g>
		<g>
			<path class="st0" d="M176.1,78.6l-10.4,15.9c-2.1-2.6-4.2-5.2-6.3-7.8c2.4-3.7,4.8-7.3,7.2-10.9
				C169.8,76.8,172.9,77.7,176.1,78.6z"/>
			<path class="st0" d="M177.1,78.2l-11.3,17.3l-7.2-8.8l7.7-11.7L177.1,78.2z M165.6,93.4l9.5-14.4l-8.3-2.5l-6.7,10.2L165.6,93.4z
				"/>
		</g>
		<g>
			<path class="st0" d="M169.1,40.6l8.7,16.9c-3.3,0.6-6.6,1.1-9.9,1.7c-2-3.8-4-7.7-5.9-11.6C164.3,45.1,166.6,42.8,169.1,40.6z"/>
			<path class="st0" d="M178.8,57.9l-11.2,1.9L161,47.2l8.2-7.9L178.8,57.9z M168.3,58.3l8.6-1.5l-7.8-15.4l-6.2,6.1L168.3,58.3z"/>
		</g>
		<g>
			<path class="st0" d="M109.8,91.6l-8.7-16.9c3.3-0.6,6.6-1.1,9.9-1.7c2,3.8,4,7.7,5.9,11.6C114.5,87,112.1,89.2,109.8,91.6z"/>
			<path class="st0" d="M117.8,84.7l-8.2,7.9l-9.5-18.4l11.2-1.9L117.8,84.7z M109.9,90.5l6.2-6.1l-5.5-10.8l-8.6,1.5L109.9,90.5z"
				/>
		</g>
		<g>
			<path class="st0" d="M101.9,53l10.4-15.9c2.1,2.6,4.2,5.2,6.3,7.8c-2.4,3.7-4.8,7.3-7.2,10.9C108.3,55,105.3,53.9,101.9,53z"/>
			<path class="st0" d="M119.6,44.9l-7.7,11.7L101,53.3L112.5,36L119.6,44.9z M111.3,55.2l6.7-10.2l-5.5-6.8l-9.5,14.4L111.3,55.2z"
				/>
		</g>
	</g>
</g>
</svg>
