<?xml version="1.0" encoding="utf-8"?>
<!-- Generator: Adobe Illustrator 21.1.0, SVG Export Plug-In . SVG Version: 6.00 Build 0)  -->
<svg version="1.1" id="Слой_1" xmlns="http://www.w3.org/2000/svg" xmlns:xlink="http://www.w3.org/1999/xlink" x="0px" y="0px"
	 width="190px" height="150px" viewBox="0 0 190 150" style="enable-background:new 0 0 190 150;" xml:space="preserve">
<style type="text/css">
	.st0{fill:#807C7C;}
</style>
<g id="Слой_1_2_">
	<g id="Слой_1_1_">
		<g>
			<g>
				<path class="st0" d="M75.2,115.8c6.3,0,12.6,0,18.9,0c-5.2-14.3-10.3-28.6-15.5-42.9C73.8,59.6,69,46.3,64.1,33
					c-1.5-4.2-2.9-8.7-7.9-10c-0.6-0.2-1.3-0.3-1.9-0.4c-2.7-0.5-4.1-0.6-4.6-0.6s-1,0-1.3,0c0,0.1,0,0.1,0,0.2c0,4.7,0,9.4,0,14.1
					c0.4,0.7,1,1.3,1.3,2c4.1,12,8.1,24.1,12.1,36.1c0.3,0.8,0.5,1.7,0.8,2.7c-4.9,0-9.5,0-14.1,0c0,4.8,0,9.6,0,14.4
					c5.4,0,10.9-0.1,16.3,0c0.9,0,2.4,0.8,2.6,1.5C70.1,100.5,72.6,108.2,75.2,115.8z"/>
				<path class="st0" d="M20,115.8c-6.3,0-12.6,0-18.9,0c5.2-14.3,10.3-28.6,15.5-42.9c4.8-13.3,9.6-26.6,14.5-39.9
					c1.5-4.2,2.9-8.7,7.9-10c0.6-0.2,1.3-0.3,1.9-0.4c2.7-0.5,4.1-0.6,4.6-0.6s1,0,1.3,0c0,0.1,0,0.1,0,0.2c0,4.7,0,9.4,0,14.1
					c-0.4,0.7-1,1.3-1.3,2c-4.1,12-8.1,24.1-12.1,36.1c-0.3,0.8-0.5,1.7-0.8,2.7c4.9,0,9.5,0,14.1,0c0,4.8,0,9.6,0,14.4
					c-5.4,0-10.9-0.1-16.3,0c-0.9,0-2.4,0.8-2.6,1.5C25.1,100.5,22.6,108.2,20,115.8z"/>
			</g>
			<path class="st0" d="M155.1,114.7"/>
			<path class="st0" d="M161.8,118"/>
		</g>
		<path class="st0" d="M148.4,113.3c9.1-6.4,18.1-12.9,27.2-19.3c2.7,6.1,5.4,12.3,8.1,18.4c-3.5,3-7.1,6-10.6,9
			c-3.2-2.1-7.8-4.6-13.7-6.2C155.2,113.9,151.4,113.4,148.4,113.3z"/>
	</g>
	<path class="st0" d="M124,18.9c17.7-5.7,37.9-1.2,51.4,13.3c8.9,9.7,13.6,22.2,13,35.4c-0.5,13.2-6,25.4-15.7,34.3
		s-22.2,13.6-35.4,13c-13-0.5-25.2-6.2-34.2-15.7c-18.4-19.9-17.3-51.1,2.6-69.6C111.1,24.7,117.4,21.1,124,18.9z M150.8,101.1
		c5.1-1.7,9.7-4.4,13.8-8.1c7.3-6.8,11.4-15.9,11.8-25.8c0.4-9.9-3.1-19.4-10-26.6c-13.9-15-37.4-16-52.5-2s-16,37.4-2,52.5l0,0
		c6.8,7.3,15.9,11.4,25.8,11.8C142.3,103,146.7,102.5,150.8,101.1z"/>
</g>
<g id="Слой_2_1_">
	<g id="Шестеренки">
		<g>
			<path class="st0" d="M99.2,64.8l5.7-18c2.8,1.9,5.5,4,8.1,5.8c-1.3,4.1-2.7,8.2-4,12.4C106,64.9,102.6,64.8,99.2,64.8z"/>
			<path class="st0" d="M98.5,65.5l6.3-19.8l9.3,6.6l-4.3,13.3L98.5,65.5z M105.4,47.7l-5.3,16.5l8.7,0.2l3.7-11.5L105.4,47.7z"/>
		</g>
		<g>
			<path class="st0" d="M178.7,66.5l-5.8,18.1c-2.8-1.9-5.5-4-8.1-5.8c1.3-4.1,2.7-8.2,4-12.4C172.1,66.4,175.5,66.4,178.7,66.5z"/>
			<path class="st0" d="M173.3,85.5l-9.3-6.6l4.3-13.3l11.4,0.3L173.3,85.5z M165.5,78.4l7.1,5l5.3-16.5l-8.7-0.2L165.5,78.4z"/>
		</g>
		<g>
			<path class="st0" d="M118.9,99.2l-13.4-13.5c3-1.5,6-3,8.9-4.6c3.1,3.1,6.1,6.2,9.2,9.3C121.9,93.4,120.4,96.3,118.9,99.2z"/>
			<path class="st0" d="M119.1,100.3l-14.6-14.7l10.1-5.2l9.8,9.9L119.1,100.3z M106.6,85.8l12.1,12.3l4.1-7.6l-8.6-8.7L106.6,85.8z
				"/>
		</g>
		<g>
			<path class="st0" d="M157.6,100.2l-18.3,5c0.1-3.4,0.3-6.6,0.4-10c4.1-1.1,8.4-2.3,12.6-3.4C154.1,94.6,155.9,97.4,157.6,100.2z"
				/>
			<path class="st0" d="M138.6,106.1l0.5-11.4l13.6-3.8l6,9.7L138.6,106.1z M140.4,95.7l-0.3,8.7l16.6-4.4l-4.7-7.4L140.4,95.7z"/>
		</g>
		<g>
			<path class="st0" d="M120,31.6l18.3-5c-0.1,3.4-0.3,6.6-0.4,10c-4.1,1.1-8.4,2.3-12.6,3.4C123.5,37.2,121.8,34.4,120,31.6z"/>
			<path class="st0" d="M125.1,40.9l-6-9.7l19.9-5.5l-0.5,11.4L125.1,40.9z M121.1,32l4.7,7.4l11.7-3.1l0.3-8.7L121.1,32z"/>
		</g>
		<g>
			<path class="st0" d="M159.4,31.9l13.4,13.5c-3,1.5-6,3-8.9,4.6c-3.1-3.1-6.1-6.2-9.2-9.3C156.1,37.8,157.8,35.1,159.4,31.9z"/>
			<path class="st0" d="M163.6,50.9l-9.8-9.9l5.4-10l14.5,14.8L163.6,50.9z M155.3,40.6l8.6,8.7l7.8-4L159.6,33L155.3,40.6z"/>
		</g>
	</g>
</g>
</svg>
