<?xml version="1.0" encoding="utf-8"?>
<!-- Generator: Adobe Illustrator 21.1.0, SVG Export Plug-In . SVG Version: 6.00 Build 0)  -->
<svg version="1.1" id="Слой_1" xmlns="http://www.w3.org/2000/svg" xmlns:xlink="http://www.w3.org/1999/xlink" x="0px" y="0px"
	 width="190px" height="150px" viewBox="0 0 190 150" style="enable-background:new 0 0 190 150;" xml:space="preserve">
<style type="text/css">
	.st0{fill:#807C7C;}
</style>
<g id="Слой_1_2_">
	<g id="Слой_1_1_">
		<g>
			<g>
				<path class="st0" d="M75.2,115.8c6.3,0,12.6,0,18.9,0c-5.2-14.3-10.3-28.6-15.5-42.9C73.8,59.6,69,46.3,64.1,33
					c-1.5-4.2-2.9-8.7-7.9-10c-0.6-0.2-1.3-0.3-1.9-0.4c-2.7-0.5-4.1-0.6-4.6-0.6s-1,0-1.3,0c0,0.1,0,0.1,0,0.2c0,4.7,0,9.4,0,14.1
					c0.4,0.7,1,1.3,1.3,2c4.1,12,8.1,24.1,12.1,36.1c0.3,0.8,0.5,1.7,0.8,2.7c-4.9,0-9.5,0-14.1,0c0,4.8,0,9.6,0,14.4
					c5.4,0,10.9-0.1,16.3,0c0.9,0,2.4,0.8,2.6,1.5C70.1,100.5,72.6,108.2,75.2,115.8z"/>
				<path class="st0" d="M20,115.8c-6.3,0-12.6,0-18.9,0c5.2-14.3,10.3-28.6,15.5-42.9c4.8-13.3,9.6-26.6,14.5-39.9
					c1.5-4.2,2.9-8.7,7.9-10c0.6-0.2,1.3-0.3,1.9-0.4c2.7-0.5,4.1-0.6,4.6-0.6s1,0,1.3,0c0,0.1,0,0.1,0,0.2c0,4.7,0,9.4,0,14.1
					c-0.4,0.7-1,1.3-1.3,2c-4.1,12-8.1,24.1-12.1,36.1c-0.3,0.8-0.5,1.7-0.8,2.7c4.9,0,9.5,0,14.1,0c0,4.8,0,9.6,0,14.4
					c-5.4,0-10.9-0.1-16.3,0c-0.9,0-2.4,0.8-2.6,1.5C25.1,100.5,22.6,108.2,20,115.8z"/>
			</g>
			<path class="st0" d="M155.1,114.7"/>
			<path class="st0" d="M161.8,118"/>
		</g>
		<path class="st0" d="M148.4,113.3c9.1-6.4,18.1-12.9,27.2-19.3c2.7,6.1,5.4,12.3,8.1,18.4c-3.5,3-7.1,6-10.6,9
			c-3.2-2.1-7.8-4.6-13.7-6.2C155.2,113.9,151.4,113.4,148.4,113.3z"/>
	</g>
	<path class="st0" d="M124,18.9c17.7-5.7,37.9-1.2,51.4,13.3c8.9,9.7,13.6,22.2,13,35.4c-0.5,13.2-6,25.4-15.7,34.3
		s-22.2,13.6-35.4,13c-13-0.5-25.2-6.2-34.2-15.7c-18.4-19.9-17.3-51.1,2.6-69.6C111.1,24.7,117.4,21.1,124,18.9z M150.8,101.1
		c5.1-1.7,9.7-4.4,13.8-8.1c7.3-6.8,11.4-15.9,11.8-25.8c0.4-9.9-3.1-19.4-10-26.6c-13.9-15-37.4-16-52.5-2s-16,37.4-2,52.5l0,0
		c6.8,7.3,15.9,11.4,25.8,11.8C142.3,103,146.7,102.5,150.8,101.1z"/>
</g>
<g id="Слой_2_1_">
	<g id="Шестеренки">
		<g>
			<path class="st0" d="M102.5,50l12.1-14.6c1.9,2.8,3.6,5.7,5.4,8.4c-2.7,3.3-5.6,6.6-8.4,10C108.8,52.5,105.7,51.2,102.5,50z"/>
			<path class="st0" d="M101.6,50.3l13.2-16l6.2,9.6l-9,10.7L101.6,50.3z M114.7,36.4l-11.1,13.3l7.9,3.5l7.7-9.3L114.7,36.4z"/>
		</g>
		<g>
			<path class="st0" d="M175.6,81.3l-12.1,14.6c-1.9-2.8-3.6-5.7-5.4-8.4c2.7-3.3,5.6-6.6,8.4-10C169.5,78.7,172.6,80,175.6,81.3z"
				/>
			<path class="st0" d="M163.4,96.9l-6.2-9.6l9-10.7l10.5,4.5L163.4,96.9z M158.9,87.4l4.7,7.3l11.1-13.3l-7.9-3.5L158.9,87.4z"/>
		</g>
		<g>
			<path class="st0" d="M107.9,89.2l-7.3-17.5c3.3-0.3,6.7-0.6,10-0.9c1.7,4.1,3.3,8,5,12.1C112.9,85,110.4,87.1,107.9,89.2z"/>
			<path class="st0" d="M107.7,90.3l-8-19.1l11.3-1.1l5.4,12.9L107.7,90.3z M101.5,72.2l6.7,16l6.7-5.5l-4.8-11.3L101.5,72.2z"/>
		</g>
		<g>
			<path class="st0" d="M143.4,104.6l-18.8-2.2c1.3-3.1,2.8-6,4.1-9.1c4.2,0.5,8.6,1,12.9,1.6C142.3,98.2,142.9,101.4,143.4,104.6z"
				/>
			<path class="st0" d="M123.6,103l4.7-10.4l14,1.6l1.9,11.2L123.6,103z M129.1,94.1l-3.5,8l17.1,2.1l-1.6-8.6L129.1,94.1z"/>
		</g>
		<g>
			<path class="st0" d="M134.3,27l18.8,2.2c-1.3,3.1-2.8,6-4.1,9.1c-4.2-0.5-8.6-1-12.9-1.6C135.4,33.5,134.9,30.2,134.3,27z"/>
			<path class="st0" d="M135.5,37.5l-1.9-11.2l20.5,2.4L149.4,39L135.5,37.5z M135.1,27.7l1.6,8.6l12,1.5l3.5-8L135.1,27.7z"/>
		</g>
		<g>
			<path class="st0" d="M170.6,42l7.3,17.5c-3.3,0.3-6.7,0.6-10,0.9c-1.7-4.1-3.3-8-5-12.1C165.4,46.3,168,44.3,170.6,42z"/>
			<path class="st0" d="M167.5,61.2l-5.4-12.9l8.8-7.2l7.9,19.2L167.5,61.2z M163.6,48.6l4.8,11.3L177,59l-6.7-16L163.6,48.6z"/>
		</g>
	</g>
</g>
</svg>
