<?xml version="1.0" encoding="utf-8"?>
<!-- Generator: Adobe Illustrator 21.1.0, SVG Export Plug-In . SVG Version: 6.00 Build 0)  -->
<svg version="1.1" id="Слой_1" xmlns="http://www.w3.org/2000/svg" xmlns:xlink="http://www.w3.org/1999/xlink" x="0px" y="0px"
	 width="190px" height="150px" viewBox="0 0 190 150" style="enable-background:new 0 0 190 150;" xml:space="preserve">
<style type="text/css">
	.st0{fill:#807C7C;}
</style>
<g id="Слой_1_2_">
	<g id="Слой_1_1_">
		<g>
			<g>
				<path class="st0" d="M75.2,115.8c6.3,0,12.6,0,18.9,0c-5.2-14.3-10.3-28.6-15.5-42.9C73.8,59.6,69,46.3,64.1,33
					c-1.5-4.2-2.9-8.7-7.9-10c-0.6-0.2-1.3-0.3-1.9-0.4c-2.7-0.5-4.1-0.6-4.6-0.6s-1,0-1.3,0c0,0.1,0,0.1,0,0.2c0,4.7,0,9.4,0,14.1
					c0.4,0.7,1,1.3,1.3,2c4.1,12,8.1,24.1,12.1,36.1c0.3,0.8,0.5,1.7,0.8,2.7c-4.9,0-9.5,0-14.1,0c0,4.8,0,9.6,0,14.4
					c5.4,0,10.9-0.1,16.3,0c0.9,0,2.4,0.8,2.6,1.5C70.1,100.5,72.6,108.2,75.2,115.8z"/>
				<path class="st0" d="M20,115.8c-6.3,0-12.6,0-18.9,0c5.2-14.3,10.3-28.6,15.5-42.9c4.8-13.3,9.6-26.6,14.5-39.9
					c1.5-4.2,2.9-8.7,7.9-10c0.6-0.2,1.3-0.3,1.9-0.4c2.7-0.5,4.1-0.6,4.6-0.6s1,0,1.3,0c0,0.1,0,0.1,0,0.2c0,4.7,0,9.4,0,14.1
					c-0.4,0.7-1,1.3-1.3,2c-4.1,12-8.1,24.1-12.1,36.1c-0.3,0.8-0.5,1.7-0.8,2.7c4.9,0,9.5,0,14.1,0c0,4.8,0,9.6,0,14.4
					c-5.4,0-10.9-0.1-16.3,0c-0.9,0-2.4,0.8-2.6,1.5C25.1,100.5,22.6,108.2,20,115.8z"/>
			</g>
			<path class="st0" d="M155.1,114.7"/>
			<path class="st0" d="M161.8,118"/>
		</g>
		<path class="st0" d="M148.4,113.3c9.1-6.4,18.1-12.9,27.2-19.3c2.7,6.1,5.4,12.3,8.1,18.4c-3.5,3-7.1,6-10.6,9
			c-3.2-2.1-7.8-4.6-13.7-6.2C155.2,113.9,151.4,113.4,148.4,113.3z"/>
	</g>
	<path class="st0" d="M124,18.9c17.7-5.7,37.9-1.2,51.4,13.3c8.9,9.7,13.6,22.2,13,35.4c-0.5,13.2-6,25.4-15.7,34.3
		s-22.2,13.6-35.4,13c-13-0.5-25.2-6.2-34.2-15.7c-18.4-19.9-17.3-51.1,2.6-69.6C111.1,24.7,117.4,21.1,124,18.9z M150.8,101.1
		c5.1-1.7,9.7-4.4,13.8-8.1c7.3-6.8,11.4-15.9,11.8-25.8c0.4-9.9-3.1-19.4-10-26.6c-13.9-15-37.4-16-52.5-2s-16,37.4-2,52.5l0,0
		c6.8,7.3,15.9,11.4,25.8,11.8C142.3,103,146.7,102.5,150.8,101.1z"/>
</g>
<g id="Слой_2_1_">
	<g id="Шестеренки">
		<g>
			<path class="st0" d="M112.2,36.4l16.9-8.4c0.6,3.3,0.9,6.7,1.5,9.9c-3.9,1.9-7.8,3.8-11.7,5.8C116.8,41.3,114.5,38.8,112.2,36.4z
				"/>
			<path class="st0" d="M111.2,36.3l18.6-9.2l1.8,11.3L119,44.6L111.2,36.3z M128.8,29l-15.5,7.7l5.8,6.4l10.8-5.3L128.8,29z"/>
		</g>
		<g>
			<path class="st0" d="M166.2,94.7l-17,8.4c-0.6-3.3-0.9-6.7-1.5-9.9c3.9-1.9,7.8-3.8,11.7-5.8C161.6,89.9,164,92.3,166.2,94.7z"/>
			<path class="st0" d="M148.7,104.1l-1.8-11.3l12.5-6.2l7.7,8.4L148.7,104.1z M148.4,93.6l1.3,8.6l15.5-7.7l-5.8-6.4L148.4,93.6z"
				/>
		</g>
		<g>
			<path class="st0" d="M101.1,74.5l0.4-19c3.2,1.1,6.3,2.2,9.5,3.3c-0.1,4.4-0.2,8.7-0.3,13.1C107.4,72.6,104.3,73.5,101.1,74.5z"
				/>
			<path class="st0" d="M100.5,75.3l0.4-20.7l10.8,3.6l-0.3,14L100.5,75.3z M102.2,56.3l-0.4,17.3l8.3-2.3l0.2-12.2L102.2,56.3z"/>
		</g>
		<g>
			<path class="st0" d="M127.2,103l-16.3-9.7c2.5-2.3,5-4.4,7.5-6.7c3.7,2.2,7.5,4.4,11.2,6.7C128.9,96.6,128.1,99.8,127.2,103z"/>
			<path class="st0" d="M109.8,93.4l8.5-7.6l12.2,7.2l-2.8,11L109.8,93.4z M118.5,87.5l-6.5,5.9l14.7,8.9l2-8.5L118.5,87.5z"/>
		</g>
		<g>
			<path class="st0" d="M150.5,28.3l16.3,9.7c-2.5,2.3-5,4.4-7.5,6.7c-3.7-2.2-7.5-4.4-11.2-6.7C148.9,34.7,149.8,31.5,150.5,28.3z"
				/>
			<path class="st0" d="M147.4,38.4l2.8-11l17.8,10.6l-8.5,7.6L147.4,38.4z M151,29.3l-2,8.5l10.4,6.2l6.5-5.9L151,29.3z"/>
		</g>
		<g>
			<path class="st0" d="M177.6,56.9l-0.4,19c-3.2-1.1-6.3-2.2-9.5-3.3c0.1-4.4,0.2-8.7,0.3-13.1C171.1,58.6,174.2,57.9,177.6,56.9z"
				/>
			<path class="st0" d="M166.9,73.1l0.3-14l10.9-3l-0.5,20.7L166.9,73.1z M168.5,60l-0.2,12.2l8.3,2.8l0.4-17.3L168.5,60z"/>
		</g>
	</g>
</g>
</svg>
