<?xml version="1.0" encoding="utf-8"?>
<!-- Generator: Adobe Illustrator 21.1.0, SVG Export Plug-In . SVG Version: 6.00 Build 0)  -->
<svg version="1.1" id="Слой_1" xmlns="http://www.w3.org/2000/svg" xmlns:xlink="http://www.w3.org/1999/xlink" x="0px" y="0px"
	 width="190px" height="150px" viewBox="0 0 190 150" style="enable-background:new 0 0 190 150;" xml:space="preserve">
<style type="text/css">
	.st0{fill:#807C7C;}
</style>
<g id="Слой_1_2_">
	<g id="Слой_1_1_">
		<g>
			<g>
				<path class="st0" d="M75.2,115.8c6.3,0,12.6,0,18.9,0c-5.2-14.3-10.3-28.6-15.5-42.9C73.8,59.6,69,46.3,64.1,33
					c-1.5-4.2-2.9-8.7-7.9-10c-0.6-0.2-1.3-0.3-1.9-0.4c-2.7-0.5-4.1-0.6-4.6-0.6s-1,0-1.3,0c0,0.1,0,0.1,0,0.2c0,4.7,0,9.4,0,14.1
					c0.4,0.7,1,1.3,1.3,2c4.1,12,8.1,24.1,12.1,36.1c0.3,0.8,0.5,1.7,0.8,2.7c-4.9,0-9.5,0-14.1,0c0,4.8,0,9.6,0,14.4
					c5.4,0,10.9-0.1,16.3,0c0.9,0,2.4,0.8,2.6,1.5C70.1,100.5,72.6,108.2,75.2,115.8z"/>
				<path class="st0" d="M20,115.8c-6.3,0-12.6,0-18.9,0c5.2-14.3,10.3-28.6,15.5-42.9c4.8-13.3,9.6-26.6,14.5-39.9
					c1.5-4.2,2.9-8.7,7.9-10c0.6-0.2,1.3-0.3,1.9-0.4c2.7-0.5,4.1-0.6,4.6-0.6s1,0,1.3,0c0,0.1,0,0.1,0,0.2c0,4.7,0,9.4,0,14.1
					c-0.4,0.7-1,1.3-1.3,2c-4.1,12-8.1,24.1-12.1,36.1c-0.3,0.8-0.5,1.7-0.8,2.7c4.9,0,9.5,0,14.1,0c0,4.8,0,9.6,0,14.4
					c-5.4,0-10.9-0.1-16.3,0c-0.9,0-2.4,0.8-2.6,1.5C25.1,100.5,22.6,108.2,20,115.8z"/>
			</g>
			<path class="st0" d="M155.1,114.7"/>
			<path class="st0" d="M161.8,118"/>
		</g>
		<path class="st0" d="M148.4,113.3c9.1-6.4,18.1-12.9,27.2-19.3c2.7,6.1,5.4,12.3,8.1,18.4c-3.5,3-7.1,6-10.6,9
			c-3.2-2.1-7.8-4.6-13.7-6.2C155.2,113.9,151.4,113.4,148.4,113.3z"/>
	</g>
	<path class="st0" d="M124,18.9c17.7-5.7,37.9-1.2,51.4,13.3c8.9,9.7,13.6,22.2,13,35.4c-0.5,13.2-6,25.4-15.7,34.3
		s-22.2,13.6-35.4,13c-13-0.5-25.2-6.2-34.2-15.7c-18.4-19.9-17.3-51.1,2.6-69.6C111.1,24.7,117.4,21.1,124,18.9z M150.8,101.1
		c5.1-1.7,9.7-4.4,13.8-8.1c7.3-6.8,11.4-15.9,11.8-25.8c0.4-9.9-3.1-19.4-10-26.6c-13.9-15-37.4-16-52.5-2s-16,37.4-2,52.5l0,0
		c6.8,7.3,15.9,11.4,25.8,11.8C142.3,103,146.7,102.5,150.8,101.1z"/>
</g>
<g id="Слой_2_1_">
	<g id="Шестеренки">
		<g>
			<path class="st0" d="M145.2,105.2l-18.7-2.5c1.4-3.1,3-6.1,4.3-9c4.3,0.6,8.6,1.2,13,1.8C144.1,98.6,144.6,101.9,145.2,105.2z"/>
			<path class="st0" d="M146,105.8l-20.5-2.8l4.8-10.3l13.8,1.9L146,105.8z M127.2,102.1l17.1,2.3l-1.3-8.6l-12-1.6L127.2,102.1z"/>
		</g>
		<g>
			<path class="st0" d="M133,26.7l18.8,2.5c-1.4,3.1-3,6.1-4.3,9c-4.3-0.6-8.6-1.2-13-1.8C134.1,33.2,133.5,29.9,133,26.7z"/>
			<path class="st0" d="M152.7,28.7L147.9,39L134,37.1l-1.7-11.3L152.7,28.7z M147.1,37.6l3.7-7.8l-17.1-2.3l1.3,8.6L147.1,37.6z"/>
		</g>
		<g>
			<path class="st0" d="M175.6,79.8l-11,15.5c-2-2.7-4-5.3-6-8c2.5-3.6,5.1-7.1,7.6-10.7C169.4,77.9,172.5,78.9,175.6,79.8z"/>
			<path class="st0" d="M176.7,79.5l-11.9,16.9l-6.9-9l8.1-11.4L176.7,79.5z M164.6,94.3l10-14.1l-8.2-2.8l-7,10L164.6,94.3z"/>
		</g>
		<g>
			<path class="st0" d="M169.9,41.6l8.1,17.2c-3.3,0.5-6.6,0.8-9.9,1.3c-1.8-3.9-3.7-7.8-5.5-11.8C165,46,167.4,43.8,169.9,41.6z"/>
			<path class="st0" d="M179,59.3l-11.3,1.5L161.6,48l8.5-7.6L179,59.3z M168.5,59.3l8.7-1.2l-7.2-15.6l-6.4,5.9L168.5,59.3z"/>
		</g>
		<g>
			<path class="st0" d="M108.9,90.5l-8.1-17.2c3.3-0.5,6.6-0.8,9.9-1.3c1.8,3.9,3.7,7.8,5.5,11.8C113.8,86.1,111.3,88.2,108.9,90.5z
				"/>
			<path class="st0" d="M117.1,83.9l-8.5,7.6l-8.8-18.7l11.3-1.5L117.1,83.9z M109.1,89.4l6.4-5.9l-5.1-11l-8.7,1.2L109.1,89.4z"/>
		</g>
		<g>
			<path class="st0" d="M102.4,51.7l11-15.5c2,2.7,4,5.3,6,8c-2.5,3.6-5.1,7.1-7.6,10.7C108.7,53.9,105.7,52.7,102.4,51.7z"/>
			<path class="st0" d="M120.3,44.2l-8.1,11.4L101.5,52l12-16.9L120.3,44.2z M111.7,54.2l7-10l-5.3-7l-10,14.1L111.7,54.2z"/>
		</g>
	</g>
</g>
</svg>
