<?xml version="1.0" encoding="utf-8"?>
<!-- Generator: Adobe Illustrator 21.1.0, SVG Export Plug-In . SVG Version: 6.00 Build 0)  -->
<svg version="1.1" id="Слой_1" xmlns="http://www.w3.org/2000/svg" xmlns:xlink="http://www.w3.org/1999/xlink" x="0px" y="0px"
	 width="190px" height="150px" viewBox="0 0 190 150" style="enable-background:new 0 0 190 150;" xml:space="preserve">
<style type="text/css">
	.st0{fill:#807C7C;}
</style>
<g id="Слой_1_2_">
	<g id="Слой_1_1_">
		<g>
			<g>
				<path class="st0" d="M75.2,115.8c6.3,0,12.6,0,18.9,0c-5.2-14.3-10.3-28.6-15.5-42.9C73.8,59.6,69,46.3,64.1,33
					c-1.5-4.2-2.9-8.7-7.9-10c-0.6-0.2-1.3-0.3-1.9-0.4c-2.7-0.5-4.1-0.6-4.6-0.6s-1,0-1.3,0c0,0.1,0,0.1,0,0.2c0,4.7,0,9.4,0,14.1
					c0.4,0.7,1,1.3,1.3,2c4.1,12,8.1,24.1,12.1,36.1c0.3,0.8,0.5,1.7,0.8,2.7c-4.9,0-9.5,0-14.1,0c0,4.8,0,9.6,0,14.4
					c5.4,0,10.9-0.1,16.3,0c0.9,0,2.4,0.8,2.6,1.5C70.1,100.5,72.6,108.2,75.2,115.8z"/>
				<path class="st0" d="M20,115.8c-6.3,0-12.6,0-18.9,0c5.2-14.3,10.3-28.6,15.5-42.9c4.8-13.3,9.6-26.6,14.5-39.9
					c1.5-4.2,2.9-8.7,7.9-10c0.6-0.2,1.3-0.3,1.9-0.4c2.7-0.5,4.1-0.6,4.6-0.6s1,0,1.3,0c0,0.1,0,0.1,0,0.2c0,4.7,0,9.4,0,14.1
					c-0.4,0.7-1,1.3-1.3,2c-4.1,12-8.1,24.1-12.1,36.1c-0.3,0.8-0.5,1.7-0.8,2.7c4.9,0,9.5,0,14.1,0c0,4.8,0,9.6,0,14.4
					c-5.4,0-10.9-0.1-16.3,0c-0.9,0-2.4,0.8-2.6,1.5C25.1,100.5,22.6,108.2,20,115.8z"/>
			</g>
			<path class="st0" d="M155.1,114.7"/>
			<path class="st0" d="M161.8,118"/>
		</g>
		<path class="st0" d="M148.4,113.3c9.1-6.4,18.1-12.9,27.2-19.3c2.7,6.1,5.4,12.3,8.1,18.4c-3.5,3-7.1,6-10.6,9
			c-3.2-2.1-7.8-4.6-13.7-6.2C155.2,113.9,151.4,113.4,148.4,113.3z"/>
	</g>
	<path class="st0" d="M124,18.9c17.7-5.7,37.9-1.2,51.4,13.3c8.9,9.7,13.6,22.2,13,35.4c-0.5,13.2-6,25.4-15.7,34.3
		s-22.2,13.6-35.4,13c-13-0.5-25.2-6.2-34.2-15.7c-18.4-19.9-17.3-51.1,2.6-69.6C111.1,24.7,117.4,21.1,124,18.9z M150.8,101.1
		c5.1-1.7,9.7-4.4,13.8-8.1c7.3-6.8,11.4-15.9,11.8-25.8c0.4-9.9-3.1-19.4-10-26.6c-13.9-15-37.4-16-52.5-2s-16,37.4-2,52.5l0,0
		c6.8,7.3,15.9,11.4,25.8,11.8C142.3,103,146.7,102.5,150.8,101.1z"/>
</g>
<g id="Слой_2_1_">
	<g id="Шестеренки">
		<g>
			<path class="st0" d="M142.4,105.5l-18.5-3.8c1.6-3,3.4-5.8,4.9-8.7c4.2,0.9,8.5,1.8,12.8,2.7C141.8,98.8,142.1,102.2,142.4,105.5
				z"/>
			<path class="st0" d="M143.2,106.2l-20.3-4.2l5.6-10l13.7,2.9L143.2,106.2z M124.7,101.2l16.9,3.5L141,96l-11.8-2.5L124.7,101.2z"
				/>
		</g>
		<g>
			<path class="st0" d="M135.8,26.3l18.6,3.8c-1.6,3-3.4,5.8-4.9,8.7c-4.2-0.9-8.5-1.8-12.8-2.7C136.4,32.9,136,29.5,135.8,26.3z"/>
			<path class="st0" d="M155.3,29.7l-5.6,10l-13.7-2.9l-0.9-11.3L155.3,29.7z M149.1,38.2l4.2-7.6l-16.9-3.5l0.7,8.6L149.1,38.2z"/>
		</g>
		<g>
			<path class="st0" d="M174.6,82.3l-12,14.7c-1.8-2.8-3.6-5.6-5.5-8.4c2.8-3.4,5.5-6.7,8.3-10.1C168.5,80,171.5,81.1,174.6,82.3z"
				/>
			<path class="st0" d="M175.6,82l-13.1,16l-6.3-9.5l8.9-10.8L175.6,82z M162.6,96l11-13.4l-8-3.3l-7.7,9.5L162.6,96z"/>
		</g>
		<g>
			<path class="st0" d="M171.5,43.8l6.9,17.7c-3.4,0.3-6.6,0.4-10,0.6c-1.5-4-3.2-8.1-4.7-12.1C166.4,47.8,168.9,45.8,171.5,43.8z"
				/>
			<path class="st0" d="M179.4,62L168,62.8l-5.2-13.1l9-7L179.4,62z M168.9,61.4l8.7-0.6l-6.1-16.1l-6.8,5.5L168.9,61.4z"/>
		</g>
		<g>
			<path class="st0" d="M107.2,88.3l-6.9-17.7c3.3-0.3,6.6-0.4,10-0.6c1.5,4,3.2,8.1,4.7,12.1C112.5,84.2,109.8,86.2,107.2,88.3z"/>
			<path class="st0" d="M115.9,82.3l-9,7L99.4,70l11.4-0.7L115.9,82.3z M107.5,87.2l6.8-5.5L110,70.5l-8.7,0.6L107.5,87.2z"/>
		</g>
		<g>
			<path class="st0" d="M103.5,49.1l12-14.7c1.8,2.8,3.6,5.6,5.5,8.4c-2.8,3.4-5.5,6.7-8.3,10.1C109.6,51.8,106.7,50.4,103.5,49.1z"
				/>
			<path class="st0" d="M121.9,42.9L113,53.7l-10.5-4.3l13.2-16L121.9,42.9z M112.5,52.3l7.7-9.5l-4.8-7.3l-11,13.4L112.5,52.3z"/>
		</g>
	</g>
</g>
</svg>
