<?xml version="1.0" encoding="utf-8"?>
<!-- Generator: Adobe Illustrator 21.1.0, SVG Export Plug-In . SVG Version: 6.00 Build 0)  -->
<svg version="1.1" id="Слой_1" xmlns="http://www.w3.org/2000/svg" xmlns:xlink="http://www.w3.org/1999/xlink" x="0px" y="0px"
	 width="190px" height="150px" viewBox="0 0 190 150" style="enable-background:new 0 0 190 150;" xml:space="preserve">
<style type="text/css">
	.st0{fill:#807C7C;}
</style>
<g id="Слой_1_2_">
	<g id="Слой_1_1_">
		<g>
			<g>
				<path class="st0" d="M75.2,115.8c6.3,0,12.6,0,18.9,0c-5.2-14.3-10.3-28.6-15.5-42.9C73.8,59.6,69,46.3,64.1,33
					c-1.5-4.2-2.9-8.7-7.9-10c-0.6-0.2-1.3-0.3-1.9-0.4c-2.7-0.5-4.1-0.6-4.6-0.6s-1,0-1.3,0c0,0.1,0,0.1,0,0.2c0,4.7,0,9.4,0,14.1
					c0.4,0.7,1,1.3,1.3,2c4.1,12,8.1,24.1,12.1,36.1c0.3,0.8,0.5,1.7,0.8,2.7c-4.9,0-9.5,0-14.1,0c0,4.8,0,9.6,0,14.4
					c5.4,0,10.9-0.1,16.3,0c0.9,0,2.4,0.8,2.6,1.5C70.1,100.5,72.6,108.2,75.2,115.8z"/>
				<path class="st0" d="M20,115.8c-6.3,0-12.6,0-18.9,0c5.2-14.3,10.3-28.6,15.5-42.9c4.8-13.3,9.6-26.6,14.5-39.9
					c1.5-4.2,2.9-8.7,7.9-10c0.6-0.2,1.3-0.3,1.9-0.4c2.7-0.5,4.1-0.6,4.6-0.6s1,0,1.3,0c0,0.1,0,0.1,0,0.2c0,4.7,0,9.4,0,14.1
					c-0.4,0.7-1,1.3-1.3,2c-4.1,12-8.1,24.1-12.1,36.1c-0.3,0.8-0.5,1.7-0.8,2.7c4.9,0,9.5,0,14.1,0c0,4.8,0,9.6,0,14.4
					c-5.4,0-10.9-0.1-16.3,0c-0.9,0-2.4,0.8-2.6,1.5C25.1,100.5,22.6,108.2,20,115.8z"/>
			</g>
			<path class="st0" d="M155.1,114.7"/>
			<path class="st0" d="M161.8,118"/>
		</g>
		<path class="st0" d="M148.4,113.3c9.1-6.4,18.1-12.9,27.2-19.3c2.7,6.1,5.4,12.3,8.1,18.4c-3.5,3-7.1,6-10.6,9
			c-3.2-2.1-7.8-4.6-13.7-6.2C155.2,113.9,151.4,113.4,148.4,113.3z"/>
	</g>
	<path class="st0" d="M124,18.9c17.7-5.7,37.9-1.2,51.4,13.3c8.9,9.7,13.6,22.2,13,35.4c-0.5,13.2-6,25.4-15.7,34.3
		s-22.2,13.6-35.4,13c-13-0.5-25.2-6.2-34.2-15.7c-18.4-19.9-17.3-51.1,2.6-69.6C111.1,24.7,117.4,21.1,124,18.9z M150.8,101.1
		c5.1-1.7,9.7-4.4,13.8-8.1c7.3-6.8,11.4-15.9,11.8-25.8c0.4-9.9-3.1-19.4-10-26.6c-13.9-15-37.4-16-52.5-2s-16,37.4-2,52.5l0,0
		c6.8,7.3,15.9,11.4,25.8,11.8C142.3,103,146.7,102.5,150.8,101.1z"/>
</g>
<g id="Слой_2_1_">
	<g id="Шестеренки">
		<g>
			<path class="st0" d="M138.3,105.6l-18-5.7c1.9-2.8,4-5.5,5.8-8.1c4.1,1.3,8.2,2.7,12.4,4C138.3,98.9,138.3,102.2,138.3,105.6z"/>
			<path class="st0" d="M138.9,106.4l-19.8-6.3l6.6-9.3l13.3,4.3L138.9,106.4z M121.1,99.4l16.5,5.3l0.2-8.7l-11.5-3.7L121.1,99.4z"
				/>
		</g>
		<g>
			<path class="st0" d="M139.9,26.2l18.1,5.8c-1.9,2.8-4,5.5-5.8,8.1c-4.1-1.3-8.2-2.7-12.4-4C139.8,32.8,139.8,29.4,139.9,26.2z"/>
			<path class="st0" d="M159,31.6l-6.6,9.3l-13.3-4.3l0.3-11.4L159,31.6z M151.9,39.4l5-7.1L140.4,27l-0.2,8.7L151.9,39.4z"/>
		</g>
		<g>
			<path class="st0" d="M172.7,85.9l-13.5,13.4c-1.5-3-3-6-4.6-8.9c3.1-3.1,6.2-6.1,9.3-9.2C166.9,82.9,169.7,84.4,172.7,85.9z"/>
			<path class="st0" d="M173.7,85.7L159,100.3l-5.2-10.1l9.9-9.8L173.7,85.7z M159.3,98.3l12.3-12.1L164,82l-8.7,8.6L159.3,98.3z"/>
		</g>
		<g>
			<path class="st0" d="M173.7,47.3l5,18.3c-3.4-0.1-6.6-0.3-10-0.4c-1.1-4.1-2.3-8.4-3.4-12.6C168.1,50.7,170.8,49,173.7,47.3z"/>
			<path class="st0" d="M179.6,66.2l-11.4-0.5l-3.8-13.6l9.7-6L179.6,66.2z M169.2,64.5l8.7,0.3l-4.4-16.6l-7.4,4.7L169.2,64.5z"/>
		</g>
		<g>
			<path class="st0" d="M105.1,84.8l-5-18.3c3.4,0.1,6.6,0.3,10,0.4c1.1,4.1,2.3,8.4,3.4,12.6C110.7,81.3,107.8,83,105.1,84.8z"/>
			<path class="st0" d="M114.3,79.8l-9.7,6l-5.5-19.9l11.4,0.5L114.3,79.8z M105.4,83.8l7.4-4.7l-3.1-11.7l-8.7-0.3L105.4,83.8z"/>
		</g>
		<g>
			<path class="st0" d="M105.4,45.5l13.5-13.4c1.5,3,3,6,4.6,8.9c-3.1,3.1-6.2,6.1-9.3,9.2C111.3,48.7,108.5,47.1,105.4,45.5z"/>
			<path class="st0" d="M124.4,41.2l-9.9,9.8l-10-5.4l14.8-14.5L124.4,41.2z M114.1,49.6l8.7-8.6l-4-7.8l-12.3,12.1L114.1,49.6z"/>
		</g>
	</g>
</g>
</svg>
