<?xml version="1.0" encoding="utf-8"?>
<!-- Generator: Adobe Illustrator 21.1.0, SVG Export Plug-In . SVG Version: 6.00 Build 0)  -->
<svg version="1.1" id="Слой_1" xmlns="http://www.w3.org/2000/svg" xmlns:xlink="http://www.w3.org/1999/xlink" x="0px" y="0px"
	 width="190px" height="150px" viewBox="0 0 190 150" style="enable-background:new 0 0 190 150;" xml:space="preserve">
<style type="text/css">
	.st0{fill:#807C7C;}
</style>
<g id="Слой_1_2_">
	<g id="Слой_1_1_">
		<g>
			<g>
				<path class="st0" d="M75.2,115.8c6.3,0,12.6,0,18.9,0c-5.2-14.3-10.3-28.6-15.5-42.9C73.8,59.6,69,46.3,64.1,33
					c-1.5-4.2-2.9-8.7-7.9-10c-0.6-0.2-1.3-0.3-1.9-0.4c-2.7-0.5-4.1-0.6-4.6-0.6s-1,0-1.3,0c0,0.1,0,0.1,0,0.2c0,4.7,0,9.4,0,14.1
					c0.4,0.7,1,1.3,1.3,2c4.1,12,8.1,24.1,12.1,36.1c0.3,0.8,0.5,1.7,0.8,2.7c-4.9,0-9.5,0-14.1,0c0,4.8,0,9.6,0,14.4
					c5.4,0,10.9-0.1,16.3,0c0.9,0,2.4,0.8,2.6,1.5C70.1,100.5,72.6,108.2,75.2,115.8z"/>
				<path class="st0" d="M20,115.8c-6.3,0-12.6,0-18.9,0c5.2-14.3,10.3-28.6,15.5-42.9c4.8-13.3,9.6-26.6,14.5-39.9
					c1.5-4.2,2.9-8.7,7.9-10c0.6-0.2,1.3-0.3,1.9-0.4c2.7-0.5,4.1-0.6,4.6-0.6s1,0,1.3,0c0,0.1,0,0.1,0,0.2c0,4.7,0,9.4,0,14.1
					c-0.4,0.7-1,1.3-1.3,2c-4.1,12-8.1,24.1-12.1,36.1c-0.3,0.8-0.5,1.7-0.8,2.7c4.9,0,9.5,0,14.1,0c0,4.8,0,9.6,0,14.4
					c-5.4,0-10.9-0.1-16.3,0c-0.9,0-2.4,0.8-2.6,1.5C25.1,100.5,22.6,108.2,20,115.8z"/>
			</g>
			<path class="st0" d="M155.1,114.7"/>
			<path class="st0" d="M161.8,118"/>
		</g>
		<path class="st0" d="M148.4,113.3c9.1-6.4,18.1-12.9,27.2-19.3c2.7,6.1,5.4,12.3,8.1,18.4c-3.5,3-7.1,6-10.6,9
			c-3.2-2.1-7.8-4.6-13.7-6.2C155.2,113.9,151.4,113.4,148.4,113.3z"/>
	</g>
	<path class="st0" d="M124,18.9c17.7-5.7,37.9-1.2,51.4,13.3c8.9,9.7,13.6,22.2,13,35.4c-0.5,13.2-6,25.4-15.7,34.3
		s-22.2,13.6-35.4,13c-13-0.5-25.2-6.2-34.2-15.7c-18.4-19.9-17.3-51.1,2.6-69.6C111.1,24.7,117.4,21.1,124,18.9z M150.8,101.1
		c5.1-1.7,9.7-4.4,13.8-8.1c7.3-6.8,11.4-15.9,11.8-25.8c0.4-9.9-3.1-19.4-10-26.6c-13.9-15-37.4-16-52.5-2s-16,37.4-2,52.5l0,0
		c6.8,7.3,15.9,11.4,25.8,11.8C142.3,103,146.7,102.5,150.8,101.1z"/>
</g>
<g id="Слой_2_1_">
	<g id="Шестеренки">
		<g>
			<path class="st0" d="M131.4,104.8l-16.8-8.8c2.3-2.4,4.9-4.7,7.1-7c3.8,2,7.6,4.1,11.6,6.1C132.6,98.2,131.9,101.5,131.4,104.8z"
				/>
			<path class="st0" d="M131.9,105.7l-18.4-9.6l8.1-8.1l12.4,6.5L131.9,105.7z M115.6,95.7l15.3,8l1.7-8.5l-10.7-5.6L115.6,95.7z"/>
		</g>
		<g>
			<path class="st0" d="M146.8,26.9l16.8,8.8c-2.3,2.4-4.9,4.7-7.1,7c-3.8-2-7.6-4.1-11.6-6.1C145.6,33.4,146.1,30,146.8,26.9z"/>
			<path class="st0" d="M164.6,35.5l-8.1,8.1L144.2,37l2.2-11.2L164.6,35.5z M156.3,41.9l6.2-6.1l-15.3-8l-1.7,8.5L156.3,41.9z"/>
		</g>
		<g>
			<path class="st0" d="M168.7,91.4L153,102.2c-1-3.2-2-6.4-2.9-9.6c3.6-2.5,7.2-4.9,10.8-7.4C163.5,87.4,166,89.4,168.7,91.4z"/>
			<path class="st0" d="M169.7,91.4l-17,11.8l-3.4-10.9l11.5-7.9L169.7,91.4z M153.4,101.2l14.2-9.8l-6.7-5.4l-10,7L153.4,101.2z"/>
		</g>
		<g>
			<path class="st0" d="M176.4,53.5l1.7,18.9c-3.3-0.7-6.5-1.5-9.8-2.1c-0.4-4.2-0.8-8.6-1.2-13C170.3,55.9,173.3,54.7,176.4,53.5z"
				/>
			<path class="st0" d="M178.9,73.2l-11.1-2.4l-1.4-14.1l10.6-4.2L178.9,73.2z M169,69.7l8.6,1.8l-1.5-17.1l-8.1,3.4L169,69.7z"/>
		</g>
		<g>
			<path class="st0" d="M102.3,78.6l-1.7-18.9c3.3,0.7,6.5,1.5,9.8,2.1c0.4,4.2,0.8,8.6,1.2,13C108.4,76.1,105.3,77.3,102.3,78.6z"
				/>
			<path class="st0" d="M112.3,75.2l-10.6,4.2l-1.9-20.6l11.1,2.4L112.3,75.2z M102.8,77.6l8.1-3.4l-1-12l-8.6-1.8L102.8,77.6z"/>
		</g>
		<g>
			<path class="st0" d="M109.5,39.9l15.6-10.8c1,3.2,2,6.4,2.9,9.6c-3.6,2.5-7.2,4.9-10.8,7.4C114.7,44.1,112.2,42,109.5,39.9z"/>
			<path class="st0" d="M128.9,39l-11.5,7.9l-8.9-7.1l17.1-11.8L128.9,39z M117.3,45.4l10-7l-2.6-8.4l-14.2,9.8L117.3,45.4z"/>
		</g>
	</g>
</g>
</svg>
