<?xml version="1.0" encoding="utf-8"?>
<!-- Generator: Adobe Illustrator 21.1.0, SVG Export Plug-In . SVG Version: 6.00 Build 0)  -->
<svg version="1.1" id="Слой_1" xmlns="http://www.w3.org/2000/svg" xmlns:xlink="http://www.w3.org/1999/xlink" x="0px" y="0px"
	 width="190px" height="150px" viewBox="0 0 190 150" style="enable-background:new 0 0 190 150;" xml:space="preserve">
<style type="text/css">
	.st0{fill:#807C7C;}
</style>
<g id="Слой_1_2_">
	<g id="Слой_1_1_">
		<g>
			<g>
				<path class="st0" d="M75.2,115.8c6.3,0,12.6,0,18.9,0c-5.2-14.3-10.3-28.6-15.5-42.9C73.8,59.6,69,46.3,64.1,33
					c-1.5-4.2-2.9-8.7-7.9-10c-0.6-0.2-1.3-0.3-1.9-0.4c-2.7-0.5-4.1-0.6-4.6-0.6s-1,0-1.3,0c0,0.1,0,0.1,0,0.2c0,4.7,0,9.4,0,14.1
					c0.4,0.7,1,1.3,1.3,2c4.1,12,8.1,24.1,12.1,36.1c0.3,0.8,0.5,1.7,0.8,2.7c-4.9,0-9.5,0-14.1,0c0,4.8,0,9.6,0,14.4
					c5.4,0,10.9-0.1,16.3,0c0.9,0,2.4,0.8,2.6,1.5C70.1,100.5,72.6,108.2,75.2,115.8z"/>
				<path class="st0" d="M20,115.8c-6.3,0-12.6,0-18.9,0c5.2-14.3,10.3-28.6,15.5-42.9c4.8-13.3,9.6-26.6,14.5-39.9
					c1.5-4.2,2.9-8.7,7.9-10c0.6-0.2,1.3-0.3,1.9-0.4c2.7-0.5,4.1-0.6,4.6-0.6s1,0,1.3,0c0,0.1,0,0.1,0,0.2c0,4.7,0,9.4,0,14.1
					c-0.4,0.7-1,1.3-1.3,2c-4.1,12-8.1,24.1-12.1,36.1c-0.3,0.8-0.5,1.7-0.8,2.7c4.9,0,9.5,0,14.1,0c0,4.8,0,9.6,0,14.4
					c-5.4,0-10.9-0.1-16.3,0c-0.9,0-2.4,0.8-2.6,1.5C25.1,100.5,22.6,108.2,20,115.8z"/>
			</g>
			<path class="st0" d="M155.1,114.7"/>
			<path class="st0" d="M161.8,118"/>
		</g>
		<path class="st0" d="M148.4,113.3c9.1-6.4,18.1-12.9,27.2-19.3c2.7,6.1,5.4,12.3,8.1,18.4c-3.5,3-7.1,6-10.6,9
			c-3.2-2.1-7.8-4.6-13.7-6.2C155.2,113.9,151.4,113.4,148.4,113.3z"/>
	</g>
	<path class="st0" d="M124,18.9c17.7-5.7,37.9-1.2,51.4,13.3c8.9,9.7,13.6,22.2,13,35.4c-0.5,13.2-6,25.4-15.7,34.3
		s-22.2,13.6-35.4,13c-13-0.5-25.2-6.2-34.2-15.7c-18.4-19.9-17.3-51.1,2.6-69.6C111.1,24.7,117.4,21.1,124,18.9z M150.8,101.1
		c5.1-1.7,9.7-4.4,13.8-8.1c7.3-6.8,11.4-15.9,11.8-25.8c0.4-9.9-3.1-19.4-10-26.6c-13.9-15-37.4-16-52.5-2s-16,37.4-2,52.5l0,0
		c6.8,7.3,15.9,11.4,25.8,11.8C142.3,103,146.7,102.5,150.8,101.1z"/>
</g>
<g id="Слой_2_1_">
	<g id="Шестеренки">
		<g>
			<path class="st0" d="M123.4,102.3l-14.6-12.1c2.8-1.9,5.7-3.6,8.4-5.4c3.3,2.7,6.6,5.6,10,8.4C126,96.1,124.7,99.2,123.4,102.3z"
				/>
			<path class="st0" d="M123.8,103.3l-16-13.2l9.6-6.2l10.7,9L123.8,103.3z M109.8,90.1l13.3,11.1l3.5-7.9l-9.3-7.7L109.8,90.1z"/>
		</g>
		<g>
			<path class="st0" d="M154.8,29.3l14.6,12.1c-2.8,1.9-5.7,3.6-8.4,5.4c-3.3-2.7-6.6-5.6-10-8.4C152.2,35.4,153.4,32.2,154.8,29.3z
				"/>
			<path class="st0" d="M170.4,41.4l-9.6,6.2l-10.7-9l4.5-10.5L170.4,41.4z M160.9,46l7.3-4.7l-13.3-11.1l-3.5,7.9L160.9,46z"/>
		</g>
		<g>
			<path class="st0" d="M162.7,96.9l-17.5,7.3c-0.3-3.3-0.6-6.7-0.9-10c4.1-1.7,8-3.3,12.1-5C158.5,92,160.5,94.4,162.7,96.9z"/>
			<path class="st0" d="M163.8,97.2l-19.1,8l-1.1-11.3l12.9-5.4L163.8,97.2z M145.7,103.4l16-6.7l-5.5-6.7l-11.3,4.8L145.7,103.4z"
				/>
		</g>
		<g>
			<path class="st0" d="M178.1,61.5l-2.2,18.8c-3.1-1.3-6-2.8-9.1-4.1c0.5-4.2,1-8.6,1.6-12.9C171.6,62.6,174.8,62,178.1,61.5z"/>
			<path class="st0" d="M176.5,81.3l-10.4-4.7l1.6-14l11.2-1.9L176.5,81.3z M167.5,75.7l8,3.5l2.1-17.1l-8.6,1.6L167.5,75.7z"/>
		</g>
		<g>
			<path class="st0" d="M100.4,70.6l2.2-18.8c3.1,1.3,6,2.8,9.1,4.1c-0.5,4.2-1,8.6-1.6,12.9C107,69.4,103.7,69.9,100.4,70.6z"/>
			<path class="st0" d="M110.9,69.4l-11.2,1.9l2.4-20.5l10.4,4.7L110.9,69.4z M101.1,69.8l8.6-1.6l1.5-12l-8-3.5L101.1,69.8z"/>
		</g>
		<g>
			<path class="st0" d="M115.5,34.2l17.5-7.3c0.3,3.3,0.6,6.7,0.9,10c-4.1,1.7-8,3.3-12.1,5C119.7,39.5,117.8,36.9,115.5,34.2z"/>
			<path class="st0" d="M134.7,37.4l-12.9,5.4l-7.2-8.8l19.2-7.9L134.7,37.4z M122,41.3l11.3-4.8l-0.8-8.7l-16,6.7L122,41.3z"/>
		</g>
	</g>
</g>
</svg>
