<?xml version="1.0" encoding="utf-8"?>
<!-- Generator: Adobe Illustrator 21.1.0, SVG Export Plug-In . SVG Version: 6.00 Build 0)  -->
<svg version="1.1" id="Слой_1" xmlns="http://www.w3.org/2000/svg" xmlns:xlink="http://www.w3.org/1999/xlink" x="0px" y="0px"
	 width="190px" height="150px" viewBox="0 0 190 150" style="enable-background:new 0 0 190 150;" xml:space="preserve">
<style type="text/css">
	.st0{fill:#807C7C;}
</style>
<g id="Слой_1_2_">
	<g id="Слой_1_1_">
		<g>
			<g>
				<path class="st0" d="M75.2,115.8c6.3,0,12.6,0,18.9,0c-5.2-14.3-10.3-28.6-15.5-42.9C73.8,59.6,69,46.3,64.1,33
					c-1.5-4.2-2.9-8.7-7.9-10c-0.6-0.2-1.3-0.3-1.9-0.4c-2.7-0.5-4.1-0.6-4.6-0.6s-1,0-1.3,0c0,0.1,0,0.1,0,0.2c0,4.7,0,9.4,0,14.1
					c0.4,0.7,1,1.3,1.3,2c4.1,12,8.1,24.1,12.1,36.1c0.3,0.8,0.5,1.7,0.8,2.7c-4.9,0-9.5,0-14.1,0c0,4.8,0,9.6,0,14.4
					c5.4,0,10.9-0.1,16.3,0c0.9,0,2.4,0.8,2.6,1.5C70.1,100.5,72.6,108.2,75.2,115.8z"/>
				<path class="st0" d="M20,115.8c-6.3,0-12.6,0-18.9,0c5.2-14.3,10.3-28.6,15.5-42.9c4.8-13.3,9.6-26.6,14.5-39.9
					c1.5-4.2,2.9-8.7,7.9-10c0.6-0.2,1.3-0.3,1.9-0.4c2.7-0.5,4.1-0.6,4.6-0.6s1,0,1.3,0c0,0.1,0,0.1,0,0.2c0,4.7,0,9.4,0,14.1
					c-0.4,0.7-1,1.3-1.3,2c-4.1,12-8.1,24.1-12.1,36.1c-0.3,0.8-0.5,1.7-0.8,2.7c4.9,0,9.5,0,14.1,0c0,4.8,0,9.6,0,14.4
					c-5.4,0-10.9-0.1-16.3,0c-0.9,0-2.4,0.8-2.6,1.5C25.1,100.5,22.6,108.2,20,115.8z"/>
			</g>
			<path class="st0" d="M155.1,114.7"/>
			<path class="st0" d="M161.8,118"/>
		</g>
		<path class="st0" d="M148.4,113.3c9.1-6.4,18.1-12.9,27.2-19.3c2.7,6.1,5.4,12.3,8.1,18.4c-3.5,3-7.1,6-10.6,9
			c-3.2-2.1-7.8-4.6-13.7-6.2C155.2,113.9,151.4,113.4,148.4,113.3z"/>
	</g>
	<path class="st0" d="M124,18.9c17.7-5.7,37.9-1.2,51.4,13.3c8.9,9.7,13.6,22.2,13,35.4c-0.5,13.2-6,25.4-15.7,34.3
		s-22.2,13.6-35.4,13c-13-0.5-25.2-6.2-34.2-15.7c-18.4-19.9-17.3-51.1,2.6-69.6C111.1,24.7,117.4,21.1,124,18.9z M150.8,101.1
		c5.1-1.7,9.7-4.4,13.8-8.1c7.3-6.8,11.4-15.9,11.8-25.8c0.4-9.9-3.1-19.4-10-26.6c-13.9-15-37.4-16-52.5-2s-16,37.4-2,52.5l0,0
		c6.8,7.3,15.9,11.4,25.8,11.8C142.3,103,146.7,102.5,150.8,101.1z"/>
</g>
<g id="Слой_2_1_">
	<g id="Шестеренки">
		<g>
			<path class="st0" d="M115,97.4l-11.2-15.2c3.2-1.1,6.4-2.1,9.5-3.2c2.6,3.5,5.1,7,7.7,10.6C119,92,117,94.6,115,97.4z"/>
			<path class="st0" d="M115.1,98.4l-12.3-16.7l10.8-3.7l8.2,11.3L115.1,98.4z M104.8,82.3L115,96.2l5.3-6.9l-7.1-9.7L104.8,82.3z"
				/>
		</g>
		<g>
			<path class="st0" d="M163.1,34.1l11.3,15.3c-3.2,1.1-6.4,2.1-9.5,3.2c-2.6-3.5-5.1-7-7.7-10.6C159.1,39.4,161.1,36.6,163.1,34.1z
				"/>
			<path class="st0" d="M175.3,49.7l-10.8,3.7l-8.2-11.3l6.9-9.1L175.3,49.7z M165,51.8l8.2-2.8L163,35.1l-5.3,6.9L165,51.8z"/>
		</g>
		<g>
			<path class="st0" d="M154.4,101.7l-18.8,2.9c0.5-3.3,1-6.6,1.6-9.9c4.4-0.7,8.6-1.3,13-1.9C151.5,95.8,152.9,98.7,154.4,101.7z"
				/>
			<path class="st0" d="M155.4,102.1l-20.5,3.2l1.7-11.3l13.8-2.1L155.4,102.1z M136.4,103.8l17.1-2.6l-3.7-7.8l-12.1,1.9
				L136.4,103.8z"/>
		</g>
		<g>
			<path class="st0" d="M177.9,71l-6.7,17.7c-2.7-2-5.2-4.2-7.9-6.2c1.5-4,3.1-8.1,4.6-12.2C171.4,70.5,174.7,70.7,177.9,71z"/>
			<path class="st0" d="M171.6,89.8l-8.9-7.1l4.9-13.2l11.3,0.8L171.6,89.8z M164.2,82.3l6.9,5.4l6.2-16.1l-8.7-0.5L164.2,82.3z"/>
		</g>
		<g>
			<path class="st0" d="M100.4,61l6.7-17.7c2.7,2,5.2,4.2,7.9,6.2c-1.5,4-3.1,8.1-4.6,12.2C107,61.5,103.7,61.2,100.4,61z"/>
			<path class="st0" d="M110.8,62.4l-11.3-0.8l7.3-19.3l8.9,7.1L110.8,62.4z M101.3,60.4l8.7,0.5l4.3-11.3l-6.9-5.4L101.3,60.4z"/>
		</g>
		<g>
			<path class="st0" d="M123.8,29.4l18.8-2.9c-0.5,3.3-1,6.6-1.6,9.9c-4.4,0.7-8.6,1.3-13,1.9C126.6,35.5,125.4,32.5,123.8,29.4z"/>
			<path class="st0" d="M141.6,37.1l-13.8,2.1L123,29l20.5-3.1L141.6,37.1z M128.4,37.8l12.1-1.9l1.4-8.6l-17.1,2.6L128.4,37.8z"/>
		</g>
	</g>
</g>
</svg>
