<?xml version="1.0" encoding="utf-8"?>
<!-- Generator: Adobe Illustrator 21.1.0, SVG Export Plug-In . SVG Version: 6.00 Build 0)  -->
<svg version="1.1" id="Слой_1" xmlns="http://www.w3.org/2000/svg" xmlns:xlink="http://www.w3.org/1999/xlink" x="0px" y="0px"
	 width="190px" height="150px" viewBox="0 0 190 150" style="enable-background:new 0 0 190 150;" xml:space="preserve">
<style type="text/css">
	.st0{fill:#807C7C;}
</style>
<g id="Слой_1_2_">
	<g id="Слой_1_1_">
		<g>
			<g>
				<path class="st0" d="M75.2,115.8c6.3,0,12.6,0,18.9,0c-5.2-14.3-10.3-28.6-15.5-42.9C73.8,59.6,69,46.3,64.1,33
					c-1.5-4.2-2.9-8.7-7.9-10c-0.6-0.2-1.3-0.3-1.9-0.4c-2.7-0.5-4.1-0.6-4.6-0.6s-1,0-1.3,0c0,0.1,0,0.1,0,0.2c0,4.7,0,9.4,0,14.1
					c0.4,0.7,1,1.3,1.3,2c4.1,12,8.1,24.1,12.1,36.1c0.3,0.8,0.5,1.7,0.8,2.7c-4.9,0-9.5,0-14.1,0c0,4.8,0,9.6,0,14.4
					c5.4,0,10.9-0.1,16.3,0c0.9,0,2.4,0.8,2.6,1.5C70.1,100.5,72.6,108.2,75.2,115.8z"/>
				<path class="st0" d="M20,115.8c-6.3,0-12.6,0-18.9,0c5.2-14.3,10.3-28.6,15.5-42.9c4.8-13.3,9.6-26.6,14.5-39.9
					c1.5-4.2,2.9-8.7,7.9-10c0.6-0.2,1.3-0.3,1.9-0.4c2.7-0.5,4.1-0.6,4.6-0.6s1,0,1.3,0c0,0.1,0,0.1,0,0.2c0,4.7,0,9.4,0,14.1
					c-0.4,0.7-1,1.3-1.3,2c-4.1,12-8.1,24.1-12.1,36.1c-0.3,0.8-0.5,1.7-0.8,2.7c4.9,0,9.5,0,14.1,0c0,4.8,0,9.6,0,14.4
					c-5.4,0-10.9-0.1-16.3,0c-0.9,0-2.4,0.8-2.6,1.5C25.1,100.5,22.6,108.2,20,115.8z"/>
			</g>
			<path class="st0" d="M155.1,114.7"/>
			<path class="st0" d="M161.8,118"/>
		</g>
		<path class="st0" d="M148.4,113.3c9.1-6.4,18.1-12.9,27.2-19.3c2.7,6.1,5.4,12.3,8.1,18.4c-3.5,3-7.1,6-10.6,9
			c-3.2-2.1-7.8-4.6-13.7-6.2C155.2,113.9,151.4,113.4,148.4,113.3z"/>
	</g>
	<path class="st0" d="M124,18.9c17.7-5.7,37.9-1.2,51.4,13.3c8.9,9.7,13.6,22.2,13,35.4c-0.5,13.2-6,25.4-15.7,34.3
		s-22.2,13.6-35.4,13c-13-0.5-25.2-6.2-34.2-15.7c-18.4-19.9-17.3-51.1,2.6-69.6C111.1,24.7,117.4,21.1,124,18.9z M150.8,101.1
		c5.1-1.7,9.7-4.4,13.8-8.1c7.3-6.8,11.4-15.9,11.8-25.8c0.4-9.9-3.1-19.4-10-26.6c-13.9-15-37.4-16-52.5-2s-16,37.4-2,52.5l0,0
		c6.8,7.3,15.9,11.4,25.8,11.8C142.3,103,146.7,102.5,150.8,101.1z"/>
</g>
<g id="Слой_2_1_">
	<g id="Шестеренки">
		<g>
			<path class="st0" d="M107.2,89.5l-6.6-17.7c3.3-0.2,6.7-0.2,10-0.4c1.5,4.1,3,8.1,4.5,12.3C112.5,85.4,109.9,87.4,107.2,89.5z"/>
			<path class="st0" d="M107,90.5L99.8,71l11.4-0.6l4.8,13.1L107,90.5z M101.5,72.2l6,16.2l7-5.1l-4.2-11.3L101.5,72.2z"/>
		</g>
		<g>
			<path class="st0" d="M170.9,41.9l6.6,17.8c-3.3,0.2-6.7,0.2-10,0.4c-1.5-4.1-3-8.1-4.5-12.3C165.6,45.9,168.2,43.8,170.9,41.9z"
				/>
			<path class="st0" d="M178.3,60.2l-11.4,0.6l-4.8-13.1l9.1-6.8L178.3,60.2z M167.8,59.4l8.7-0.4l-6-16.2l-7,5.1L167.8,59.4z"/>
		</g>
		<g>
			<path class="st0" d="M143.9,104.5L125,102c1.4-3,2.8-6.1,4.2-9.1c4.4,0.6,8.6,1.1,13,1.7C142.7,98.1,143.3,101.2,143.9,104.5z"/>
			<path class="st0" d="M144.7,105.2l-20.5-2.6l4.7-10.4l13.8,1.8L144.7,105.2z M125.9,101.5l17.1,2.2l-1.4-8.5l-12.1-1.5
				L125.9,101.5z"/>
		</g>
		<g>
			<path class="st0" d="M175,81.5l-11.4,15.2c-2-2.7-3.8-5.4-5.8-8.1c2.5-3.4,5.2-7,7.8-10.4C168.8,79.2,171.9,80.3,175,81.5z"/>
			<path class="st0" d="M163.7,97.8l-6.6-9.3l8.4-11.4l10.7,3.9L163.7,97.8z M158.7,88.5l5.2,7.1l10.4-13.7L166,79L158.7,88.5z"/>
		</g>
		<g>
			<path class="st0" d="M103.1,50.5l11.4-15.2c2,2.7,3.8,5.4,5.8,8.1c-2.5,3.4-5.2,7-7.8,10.4C109.4,52.8,106.3,51.6,103.1,50.5z"/>
			<path class="st0" d="M112.8,54.7l-10.7-3.9l12.4-16.6l6.6,9.3L112.8,54.7z M104.2,50.2l8.2,2.9l7.3-9.6l-5.2-7.1L104.2,50.2z"/>
		</g>
		<g>
			<path class="st0" d="M134.4,26.5l18.8,2.4c-1.4,3-2.8,6.1-4.2,9.1c-4.4-0.6-8.6-1.1-13-1.7C135.4,33.2,135,30,134.4,26.5z"/>
			<path class="st0" d="M149.4,38.9l-13.8-1.8l-1.9-11.2l20.6,2.7L149.4,38.9z M136.5,35.9l12.1,1.5l3.7-7.9l-17.1-2.2L136.5,35.9z"
				/>
		</g>
	</g>
</g>
</svg>
