<?xml version="1.0" encoding="utf-8"?>
<!-- Generator: Adobe Illustrator 21.1.0, SVG Export Plug-In . SVG Version: 6.00 Build 0)  -->
<svg version="1.1" id="Слой_1" xmlns="http://www.w3.org/2000/svg" xmlns:xlink="http://www.w3.org/1999/xlink" x="0px" y="0px"
	 width="190px" height="150px" viewBox="0 0 190 150" style="enable-background:new 0 0 190 150;" xml:space="preserve">
<style type="text/css">
	.st0{fill:#807C7C;}
</style>
<g id="Слой_1_2_">
	<g id="Слой_1_1_">
		<g>
			<g>
				<path class="st0" d="M75.2,115.8c6.3,0,12.6,0,18.9,0c-5.2-14.3-10.3-28.6-15.5-42.9C73.8,59.6,69,46.3,64.1,33
					c-1.5-4.2-2.9-8.7-7.9-10c-0.6-0.2-1.3-0.3-1.9-0.4c-2.7-0.5-4.1-0.6-4.6-0.6s-1,0-1.3,0c0,0.1,0,0.1,0,0.2c0,4.7,0,9.4,0,14.1
					c0.4,0.7,1,1.3,1.3,2c4.1,12,8.1,24.1,12.1,36.1c0.3,0.8,0.5,1.7,0.8,2.7c-4.9,0-9.5,0-14.1,0c0,4.8,0,9.6,0,14.4
					c5.4,0,10.9-0.1,16.3,0c0.9,0,2.4,0.8,2.6,1.5C70.1,100.5,72.6,108.2,75.2,115.8z"/>
				<path class="st0" d="M20,115.8c-6.3,0-12.6,0-18.9,0c5.2-14.3,10.3-28.6,15.5-42.9c4.8-13.3,9.6-26.6,14.5-39.9
					c1.5-4.2,2.9-8.7,7.9-10c0.6-0.2,1.3-0.3,1.9-0.4c2.7-0.5,4.1-0.6,4.6-0.6s1,0,1.3,0c0,0.1,0,0.1,0,0.2c0,4.7,0,9.4,0,14.1
					c-0.4,0.7-1,1.3-1.3,2c-4.1,12-8.1,24.1-12.1,36.1c-0.3,0.8-0.5,1.7-0.8,2.7c4.9,0,9.5,0,14.1,0c0,4.8,0,9.6,0,14.4
					c-5.4,0-10.9-0.1-16.3,0c-0.9,0-2.4,0.8-2.6,1.5C25.1,100.5,22.6,108.2,20,115.8z"/>
			</g>
			<path class="st0" d="M155.1,114.7"/>
			<path class="st0" d="M161.8,118"/>
		</g>
		<path class="st0" d="M148.4,113.3c9.1-6.4,18.1-12.9,27.2-19.3c2.7,6.1,5.4,12.3,8.1,18.4c-3.5,3-7.1,6-10.6,9
			c-3.2-2.1-7.8-4.6-13.7-6.2C155.2,113.9,151.4,113.4,148.4,113.3z"/>
	</g>
	<path class="st0" d="M124,18.9c17.7-5.7,37.9-1.2,51.4,13.3c8.9,9.7,13.6,22.2,13,35.4c-0.5,13.2-6,25.4-15.7,34.3
		s-22.2,13.6-35.4,13c-13-0.5-25.2-6.2-34.2-15.7c-18.4-19.9-17.3-51.1,2.6-69.6C111.1,24.7,117.4,21.1,124,18.9z M150.8,101.1
		c5.1-1.7,9.7-4.4,13.8-8.1c7.3-6.8,11.4-15.9,11.8-25.8c0.4-9.9-3.1-19.4-10-26.6c-13.9-15-37.4-16-52.5-2s-16,37.4-2,52.5l0,0
		c6.8,7.3,15.9,11.4,25.8,11.8C142.3,103,146.7,102.5,150.8,101.1z"/>
</g>
<g id="Слой_2_1_">
	<g id="Шестеренки">
		<g>
			<path class="st0" d="M101.3,78.5l-0.8-18.9c3.3,0.8,6.5,1.9,9.6,2.7c0.2,4.3,0.3,8.6,0.5,13.1C107.7,76.2,104.5,77.3,101.3,78.5z
				"/>
			<path class="st0" d="M100.9,79.3L100,58.6l11,3l0.5,14L100.9,79.3z M101.3,60.2l0.7,17.3l8.2-2.7l-0.5-12.1L101.3,60.2z"/>
		</g>
		<g>
			<path class="st0" d="M176.6,52.9l0.8,19c-3.3-0.8-6.5-1.9-9.6-2.7c-0.2-4.3-0.3-8.6-0.5-13.1C170.3,55,173.5,53.8,176.6,52.9z"/>
			<path class="st0" d="M178,72.6l-11-3l-0.5-14l10.8-3.7L178,72.6z M168.3,68.6l8.4,2.3L176,53.6l-8.2,2.7L168.3,68.6z"/>
		</g>
		<g>
			<path class="st0" d="M131.6,104l-17.2-8.1c2.3-2.4,4.6-4.9,6.8-7.3c4,1.9,7.9,3.8,11.8,5.6C132.5,97.6,132.1,100.8,131.6,104z"/>
			<path class="st0" d="M132.2,105l-18.7-8.8l7.7-8.4l12.6,6L132.2,105z M115.5,95.7l15.6,7.4l1.3-8.5l-11.1-5.2L115.5,95.7z"/>
		</g>
		<g>
			<path class="st0" d="M168.3,91.8l-15.5,10.9c-1.1-3.2-2-6.4-3-9.5c3.5-2.5,7.1-5,10.6-7.5C163.1,87.7,165.7,89.7,168.3,91.8z"/>
			<path class="st0" d="M152.5,103.8L149,92.9l11.5-8.2l8.9,7L152.5,103.8z M150.6,93.4l2.7,8.3l14.1-9.8l-6.9-5.3L150.6,93.4z"/>
		</g>
		<g>
			<path class="st0" d="M109.5,40.2L125,29.2c1.1,3.2,2,6.4,3,9.5c-3.5,2.5-7.1,5-10.6,7.5C114.8,44.2,112.2,42.1,109.5,40.2z"/>
			<path class="st0" d="M117.5,47.1l-8.9-7l16.9-12l3.5,10.9L117.5,47.1z M110.6,40.1l6.9,5.3l9.9-6.9l-2.7-8.3L110.6,40.1z"/>
		</g>
		<g>
			<path class="st0" d="M146.6,27l17.2,8.1c-2.3,2.4-4.6,4.9-6.8,7.3c-4-1.9-7.9-3.8-11.8-5.6C145.6,33.7,146.2,30.5,146.6,27z"/>
			<path class="st0" d="M157.1,43.4l-12.6-6l1.7-11.2l18.7,8.9L157.1,43.4z M145.8,36.6l11.1,5.2l6-6.4l-15.6-7.4L145.8,36.6z"/>
		</g>
	</g>
</g>
</svg>
